<svg xmlns="http://www.w3.org/2000/svg" xmlns:xlink="http://www.w3.org/1999/xlink"><defs><symbol viewBox="0 0 11 16" fill="none" id="arrow-left">
<path fill-rule="evenodd" clip-rule="evenodd" d="M9.8376 15.6717C10.2251 15.2781 10.2201 14.645 9.82657 14.2575L3.49922 8.02809L9.72777 1.70162C10.1152 1.30806 10.1103 0.674912 9.71674 0.287446C9.32318 -0.10002 8.69003 -0.0950815 8.30257 0.298477L1.70696 6.99779C1.55265 7.04475 1.40751 7.1298 1.28639 7.25283C1.07225 7.47033 0.977968 7.76102 1.0029 8.04297C0.979256 8.32845 1.07781 8.62197 1.2979 8.83866C1.42158 8.96042 1.56891 9.04343 1.72484 9.0878L8.42343 15.6827C8.81699 16.0702 9.45013 16.0652 9.8376 15.6717Z" fill="white" />
</symbol><symbol viewBox="0 0 10 17" fill="none" id="arrow-right">
<path fill-rule="evenodd" clip-rule="evenodd" d="M0.701462 0.712615C0.313996 1.10617 0.318934 1.73932 0.712493 2.12679L7.12551 8.44053L0.811416 14.8539C0.42395 15.2475 0.428889 15.8806 0.822448 16.2681C1.21601 16.6555 1.84915 16.6506 2.23662 16.257L9.22897 9.15475C9.23697 9.14714 9.24487 9.13938 9.25267 9.13145C9.62128 8.75704 9.63475 8.1658 9.29633 7.77553C9.27892 7.75543 9.26057 7.73585 9.24128 7.71687C9.23907 7.71469 9.23685 7.71253 9.23463 7.71038L2.11563 0.701584C1.72207 0.314118 1.08893 0.319056 0.701462 0.712615Z" fill="white" />
</symbol><symbol viewBox="0 0 10 17" fill="#4b9bf8" id="arrow-right-hover">
<path fill-rule="evenodd" clip-rule="evenodd" d="M0.701462 0.712615C0.313996 1.10617 0.318934 1.73932 0.712493 2.12679L7.12551 8.44053L0.811416 14.8539C0.42395 15.2475 0.428889 15.8806 0.822448 16.2681C1.21601 16.6555 1.84915 16.6506 2.23662 16.257L9.22897 9.15475C9.23697 9.14714 9.24487 9.13938 9.25267 9.13145C9.62128 8.75704 9.63475 8.1658 9.29633 7.77553C9.27892 7.75543 9.26057 7.73585 9.24128 7.71687C9.23907 7.71469 9.23685 7.71253 9.23463 7.71038L2.11563 0.701584C1.72207 0.314118 1.08893 0.319056 0.701462 0.712615Z" />
</symbol><symbol viewBox="0 0 20 20" fill="none" id="download">
<path d="M18.7734 13.3359C18.332 13.3359 17.9766 13.6914 17.9766 14.1328V17.9766H2.02344V14.1328C2.02344 13.6914 1.66797 13.3359 1.22656 13.3359C0.785156 13.3359 0.429688 13.6914 0.429688 14.1328V18.7734C0.429688 19.2148 0.785156 19.5703 1.22656 19.5703H18.7734C19.2148 19.5703 19.5703 19.2148 19.5703 18.7734V14.1328C19.5703 13.6914 19.2148 13.3359 18.7734 13.3359Z" fill="white" />
<path d="M9.41507 14.2812C9.86429 14.7344 10.4151 14.4844 10.583 14.2812L15.1651 9.35156C15.4658 9.02734 15.4463 8.52344 15.1221 8.22266C14.7979 7.92188 14.294 7.94141 13.9971 8.26562L10.7979 11.707V1.34766C10.7979 0.90625 10.4424 0.550781 10.001 0.550781C9.5596 0.550781 9.20413 0.90625 9.20413 1.34766V11.7109L6.00491 8.26953C5.70413 7.94531 5.20023 7.92969 4.87601 8.22656C4.55179 8.52734 4.53616 9.03125 4.83304 9.35547L9.41507 14.2812Z" fill="white" />
</symbol><symbol viewBox="0 0 18 9" fill="none" id="eye-closed">
<path d="M9.00181 5.38326C6.61412 5.38326 4.93516 4.19733 3.82595 2.96487C3.27082 2.34806 2.86795 1.7287 2.60434 1.2635C2.47295 1.03165 2.37733 0.84016 2.31563 0.709281C2.28481 0.643901 2.26254 0.593829 2.24858 0.561619C2.24161 0.545519 2.23672 0.533901 2.23388 0.527084C2.23246 0.523676 2.23156 0.52147 2.23116 0.520506C2.23097 0.520025 2.2309 0.519854 2.23096 0.519998C2.23099 0.520071 2.23105 0.520222 2.23114 0.520453C2.23119 0.520568 2.23128 0.520802 2.2313 0.520859C2.23141 0.521112 2.23151 0.521386 1.53516 0.799927C0.838798 1.07847 0.838924 1.07878 0.839058 1.07912C0.839113 1.07925 0.839256 1.07961 0.839367 1.07989C0.83959 1.08044 0.839847 1.08108 0.840137 1.0818C0.840718 1.08323 0.841432 1.085 0.842281 1.08708C0.84398 1.09124 0.846217 1.09669 0.848998 1.10337C0.85456 1.11673 0.862298 1.13506 0.872249 1.15803C0.892145 1.20394 0.920916 1.26845 0.958844 1.34891C1.03464 1.50969 1.14735 1.73487 1.2993 2.00302C1.60235 2.53782 2.06614 3.2518 2.71101 3.96832C4.00179 5.40252 6.05616 6.88326 9.00181 6.88326V5.38326ZM16.4685 0.799927C15.7721 0.521382 15.7722 0.521109 15.7723 0.520856C15.7724 0.520798 15.7725 0.520565 15.7725 0.52045C15.7726 0.520219 15.7727 0.520067 15.7727 0.519995C15.7727 0.51985 15.7727 0.520021 15.7725 0.520503C15.7721 0.521466 15.7712 0.523672 15.7698 0.52708C15.7669 0.533897 15.762 0.545516 15.7551 0.561615C15.7411 0.593826 15.7188 0.643897 15.688 0.709277C15.6263 0.840156 15.5307 1.03164 15.3993 1.2635C15.1357 1.7287 14.7328 2.34806 14.1777 2.96487C13.0685 4.19733 11.3895 5.38326 9.00181 5.38326V6.88326C11.9475 6.88326 14.0018 5.40252 15.2926 3.96832C15.9375 3.2518 16.4013 2.53782 16.7043 2.00302C16.8563 1.73488 16.969 1.5097 17.0448 1.34891C17.0827 1.26846 17.1115 1.20394 17.1314 1.15803C17.1413 1.13507 17.1491 1.11674 17.1546 1.10337C17.1574 1.09669 17.1597 1.09125 17.1614 1.08708C17.1622 1.085 17.1629 1.08324 17.1635 1.0818C17.1638 1.08108 17.1641 1.08045 17.1643 1.07989C17.1644 1.07961 17.1645 1.07926 17.1646 1.07912C17.1647 1.07879 17.1648 1.07847 16.4685 0.799927ZM9.75182 8.79992L9.75181 6.13326L8.25181 6.13327L8.25182 8.79993L9.75182 8.79992ZM2.59882 7.19692L4.73215 5.06359L3.67149 4.00293L1.53816 6.13626L2.59882 7.19692ZM13.2715 5.06359L15.4048 7.19692L16.4655 6.13626L14.3322 4.00293L13.2715 5.06359Z" fill="#999999" />
</symbol><symbol viewBox="0 0 18 14" fill="none" id="eye-open">
<path d="M1.53516 7.00002L0.838798 6.72148C0.767276 6.90029 0.767276 7.09975 0.838798 7.27856L1.53516 7.00002ZM16.4685 7.00002L17.1648 7.27856C17.2364 7.09976 17.2364 6.90028 17.1648 6.72148L16.4685 7.00002ZM9.00181 11.5834C6.61412 11.5834 4.93516 10.3974 3.82595 9.16496C3.27082 8.54815 2.86795 7.92879 2.60434 7.4636C2.47295 7.23174 2.37733 7.04025 2.31563 6.90937C2.28481 6.84399 2.26254 6.79392 2.24858 6.76171C2.24161 6.74561 2.23672 6.73399 2.23388 6.72718C2.23246 6.72377 2.23156 6.72156 2.23116 6.7206C2.23097 6.72012 2.2309 6.71995 2.23096 6.72009C2.23099 6.72016 2.23105 6.72032 2.23114 6.72055C2.23119 6.72066 2.23128 6.7209 2.2313 6.72095C2.23141 6.72121 2.23151 6.72148 1.53516 7.00002C0.838798 7.27856 0.838924 7.27888 0.839058 7.27921C0.839113 7.27935 0.839256 7.2797 0.839367 7.27998C0.83959 7.28054 0.839847 7.28117 0.840137 7.28189C0.840718 7.28333 0.841432 7.28509 0.842281 7.28717C0.84398 7.29134 0.846217 7.29678 0.848998 7.30346C0.85456 7.31683 0.862298 7.33516 0.872249 7.35812C0.892145 7.40403 0.920916 7.46855 0.958844 7.549C1.03464 7.70979 1.14735 7.93497 1.2993 8.20311C1.60235 8.73791 2.06614 9.45189 2.71101 10.1684C4.00179 11.6026 6.05616 13.0834 9.00181 13.0834V11.5834ZM1.53516 7.00002C2.23151 7.27856 2.23141 7.27883 2.2313 7.27909C2.23128 7.27914 2.23119 7.27938 2.23114 7.27949C2.23105 7.27972 2.23099 7.27988 2.23096 7.27995C2.2309 7.28009 2.23097 7.27992 2.23116 7.27944C2.23156 7.27848 2.23246 7.27627 2.23388 7.27286C2.23672 7.26605 2.24161 7.25443 2.24858 7.23833C2.26254 7.20612 2.28481 7.15605 2.31563 7.09067C2.37733 6.95979 2.47295 6.7683 2.60434 6.53644C2.86795 6.07125 3.27082 5.45189 3.82595 4.83508C4.93516 3.60262 6.61412 2.41669 9.00181 2.41669V0.916687C6.05616 0.916687 4.00179 2.39743 2.71101 3.83163C2.06614 4.54815 1.60235 5.26213 1.2993 5.79693C1.14735 6.06507 1.03464 6.29025 0.958844 6.45104C0.920916 6.53149 0.892145 6.59601 0.872249 6.64192C0.862298 6.66488 0.85456 6.68321 0.848998 6.69658C0.846217 6.70326 0.84398 6.7087 0.842281 6.71287C0.841432 6.71495 0.840718 6.71671 0.840137 6.71815C0.839847 6.71887 0.83959 6.7195 0.839367 6.72006C0.839256 6.72034 0.839113 6.72069 0.839058 6.72083C0.838924 6.72116 0.838798 6.72148 1.53516 7.00002ZM9.00181 2.41669C11.3895 2.41669 13.0685 3.60262 14.1777 4.83508C14.7328 5.45189 15.1357 6.07125 15.3993 6.53645C15.5307 6.7683 15.6263 6.95979 15.688 7.09067C15.7188 7.15605 15.7411 7.20612 15.7551 7.23833C15.762 7.25443 15.7669 7.26605 15.7698 7.27287C15.7712 7.27627 15.7721 7.27848 15.7725 7.27944C15.7727 7.27993 15.7727 7.2801 15.7727 7.27995C15.7727 7.27988 15.7726 7.27973 15.7725 7.2795C15.7725 7.27938 15.7724 7.27915 15.7723 7.27909C15.7722 7.27884 15.7721 7.27856 16.4685 7.00002C17.1648 6.72148 17.1647 6.72116 17.1646 6.72083C17.1645 6.72069 17.1644 6.72033 17.1643 6.72006C17.1641 6.7195 17.1638 6.71886 17.1635 6.71814C17.1629 6.71671 17.1622 6.71495 17.1614 6.71286C17.1597 6.7087 17.1574 6.70326 17.1546 6.69657C17.1491 6.68321 17.1413 6.66488 17.1314 6.64192C17.1115 6.596 17.0827 6.53149 17.0448 6.45104C16.969 6.29025 16.8563 6.06507 16.7043 5.79693C16.4013 5.26213 15.9375 4.54815 15.2926 3.83163C14.0018 2.39742 11.9475 0.916687 9.00181 0.916687V2.41669ZM16.4685 7.00002C15.7721 6.72148 15.7722 6.7212 15.7723 6.72095C15.7724 6.72089 15.7725 6.72066 15.7725 6.72054C15.7726 6.72031 15.7727 6.72016 15.7727 6.72009C15.7727 6.71994 15.7727 6.72011 15.7725 6.7206C15.7721 6.72156 15.7712 6.72377 15.7698 6.72717C15.7669 6.73399 15.762 6.74561 15.7551 6.76171C15.7411 6.79392 15.7188 6.84399 15.688 6.90937C15.6263 7.04025 15.5307 7.23174 15.3993 7.46359C15.1357 7.92879 14.7328 8.54815 14.1777 9.16496C13.0685 10.3974 11.3895 11.5834 9.00181 11.5834V13.0834C11.9475 13.0834 14.0018 11.6026 15.2926 10.1684C15.9375 9.45189 16.4013 8.73791 16.7043 8.20311C16.8563 7.93497 16.969 7.70979 17.0448 7.549C17.0827 7.46855 17.1115 7.40404 17.1314 7.35812C17.1413 7.33516 17.1491 7.31683 17.1546 7.30347C17.1574 7.29678 17.1597 7.29134 17.1614 7.28718C17.1622 7.28509 17.1629 7.28333 17.1635 7.2819C17.1638 7.28118 17.1641 7.28054 17.1643 7.27998C17.1644 7.27971 17.1645 7.27935 17.1646 7.27921C17.1647 7.27888 17.1648 7.27856 16.4685 7.00002ZM9.00182 8.38335C8.23783 8.38335 7.61849 7.76401 7.61849 7.00002H6.11849C6.11849 8.59244 7.4094 9.88335 9.00182 9.88335V8.38335ZM10.3852 7.00002C10.3852 7.76401 9.76582 8.38335 9.00182 8.38335V9.88335C10.5942 9.88335 11.8852 8.59244 11.8852 7.00002H10.3852ZM9.00182 5.61669C9.76582 5.61669 10.3852 6.23603 10.3852 7.00002H11.8852C11.8852 5.4076 10.5942 4.11669 9.00182 4.11669V5.61669ZM9.00182 4.11669C7.4094 4.11669 6.11849 5.4076 6.11849 7.00002H7.61849C7.61849 6.23603 8.23783 5.61669 9.00182 5.61669V4.11669Z" fill="#999999" />
</symbol><symbol viewBox="0 0 20 12" fill="none" id="icon-arrow">
<rect x="18.5859" y="0.686279" width="2" height="14" rx="1" transform="rotate(45 18.5859 0.686279)" fill="white" />
<rect x="11.5146" y="10.5858" width="2" height="14" rx="1" transform="rotate(135 11.5146 10.5858)" fill="white" />
</symbol><symbol viewBox="0 0 17 10" fill="none" id="icon-arrow-accordion">
    <path fill-rule="evenodd" clip-rule="evenodd" d="M15.8492 0.292993C15.4587 -0.0975314 14.8256 -0.0975314 14.435 0.292992L8.07115 6.65687L1.70712 0.292841C1.3166 -0.0976842 0.683431 -0.0976843 0.292908 0.292841C-0.0976174 0.683364 -0.0976174 1.31653 0.292907 1.70705L7.3531 8.76724C7.35668 8.77094 7.36031 8.77462 7.36396 8.77827C7.75449 9.1688 8.38765 9.1688 8.77817 8.77827L15.8492 1.70721C16.2398 1.31668 16.2398 0.683517 15.8492 0.292993Z" fill="#4B9BF8" />
</symbol><symbol viewBox="0 0 41 14" fill="none" id="icon-arrow-line">
<path fill-rule="evenodd" clip-rule="evenodd" d="M34.1212 0.292893C33.7306 -0.0976311 33.0975 -0.097631 32.707 0.292893C32.3164 0.683418 32.3164 1.31658 32.707 1.70711L36.5856 5.58579H1C0.447715 5.58579 0 6.0335 0 6.58579C0 7.13807 0.447714 7.58579 0.999999 7.58579H36.7279L32.7071 11.6066C32.3166 11.9971 32.3166 12.6303 32.7071 13.0208C33.0976 13.4113 33.7308 13.4113 34.1213 13.0208L39.7782 7.36394C40.1687 6.97342 40.1687 6.34025 39.7782 5.94973C39.7745 5.94607 39.7708 5.94245 39.7671 5.93886L39.7174 5.88908C39.7106 5.8821 39.7037 5.87521 39.6967 5.86843L34.1212 0.292893Z" fill="white" />
</symbol><symbol viewBox="0 0 30 30" fill="none" id="icon-avatar">
<path d="M10 11C10 8.23858 12.2386 6 15 6C17.7614 6 20 8.23858 20 11C20 13.7614 17.7614 16 15 16C12.2386 16 10 13.7614 10 11Z" fill="#999999" />
<path fill-rule="evenodd" clip-rule="evenodd" d="M15 0C6.71573 0 0 6.71573 0 15C0 23.2843 6.71573 30 15 30C23.2843 30 30 23.2843 30 15C30 6.71573 23.2843 0 15 0ZM2 15C2 7.8203 7.8203 2 15 2C22.1797 2 28 7.8203 28 15C28 18.6991 26.455 22.0374 23.9751 24.4047C23.6731 20.8172 20.6655 18 17 18H13C9.33448 18 6.3269 20.8172 6.02493 24.4047C3.54501 22.0374 2 18.6991 2 15Z" fill="#999999" />
</symbol><symbol viewBox="0 0 32 31" fill="none" id="icon-cart">
<path d="M2 1L3.2 5M3.2 5L8 21H30V9C30 6.79086 28.2091 5 26 5H3.2ZM26 29C24.8954 29 24 28.1046 24 27C24 25.8954 24.8954 25 26 25C27.1046 25 28 25.8954 28 27C28 28.1046 27.1046 29 26 29ZM10 27C10 25.8954 10.8954 25 12 25C13.1046 25 14 25.8954 14 27C14 28.1046 13.1046 29 12 29C10.8954 29 10 28.1046 10 27Z" stroke="#999999" stroke-width="3" />
</symbol><symbol viewBox="0 0 12 9" fill="none" id="icon-check">
<path d="M0.707107 4.94966C0.316583 4.55914 0.316583 3.92597 0.707107 3.53545C1.09763 3.14492 1.7308 3.14492 2.12132 3.53545L4.94975 6.36387C5.34027 6.7544 5.34027 7.38756 4.94975 7.77809C4.55922 8.16861 3.92606 8.16861 3.53553 7.77809L0.707107 4.94966Z" fill="white" />
<rect x="9.89941" width="2" height="10" rx="1" transform="rotate(45 9.89941 0)" fill="white" />
</symbol><symbol viewBox="0 0 24 24" fill="none" id="icon-chevron">
<path d="M12 12.6L16.6 8L18 9.4L12 15.4L6 9.4L7.4 8L12 12.6Z" fill="#4B9BF8" />
</symbol><symbol viewBox="0 0 22 22" fill="none" id="icon-close">
<path fill-rule="evenodd" clip-rule="evenodd" d="M21.5063 21.5061C21.8968 21.1156 21.8968 20.4824 21.5063 20.0919L12.3138 10.8995L21.5061 1.7072C21.8966 1.31668 21.8966 0.683514 21.5061 0.29299C21.1156 -0.0975345 20.4824 -0.097534 20.0919 0.29299L10.8996 9.48524L1.70728 0.292893C1.31676 -0.097631 0.683595 -0.0976311 0.293071 0.292893C-0.0974532 0.683417 -0.0974527 1.31658 0.293072 1.70711L9.48542 10.8995L0.292893 20.092C-0.097631 20.4825 -0.0976311 21.1157 0.292893 21.5062C0.683417 21.8967 1.31658 21.8967 1.70711 21.5062L10.8996 12.3137L20.0921 21.5061C20.4826 21.8966 21.1157 21.8966 21.5063 21.5061Z" fill="#888888" />
</symbol><symbol viewBox="0 0 16 16" fill="none" id="icon-del">
<path fill-rule="evenodd" clip-rule="evenodd" d="M14.8491 14.8501C15.2396 14.4595 15.2396 13.8264 14.8491 13.4359L9.19252 7.77928L14.8491 2.12268C15.2396 1.73216 15.2396 1.09899 14.8491 0.708467C14.4586 0.317943 13.8254 0.317943 13.4349 0.708467L7.7783 6.36507L2.12117 0.707932C1.73064 0.317408 1.09748 0.317408 0.706956 0.707932C0.316431 1.09846 0.316431 1.73162 0.706956 2.12215L6.36409 7.77928L0.706984 13.4364C0.316459 13.8269 0.316459 14.4601 0.706984 14.8506C1.09751 15.2411 1.73067 15.2411 2.1212 14.8506L7.7783 9.1935L13.4349 14.8501C13.8254 15.2406 14.4586 15.2406 14.8491 14.8501Z" fill="#FF5858" />
</symbol><symbol viewBox="0 0 50 50" fill="none" id="icon-doc">
<path d="M17.2333 9.30977V0H17.1288C16.7404 0 16.3677 0.154495 16.0931 0.429153L6.67915 9.84306C6.4045 10.1177 6.25 10.4904 6.25 10.8788V10.9833H15.5602C16.4825 10.9833 17.2333 10.2325 17.2333 9.30977Z" fill="#4B9BF8" />
<path d="M39.0953 0H20.163V9.30977C20.163 11.8477 18.0981 13.9126 15.5602 13.9126H6.25V45.3972C6.25 47.9351 8.3149 50 10.8528 50H39.0953C41.626 50 43.6981 47.9538 43.6981 45.3972V4.60281C43.6981 2.07214 41.6519 0 39.0953 0ZM17.662 25.5333C18.2343 24.9611 19.1616 24.9611 19.7338 25.5333L23.5092 29.3087V18.7241C23.5092 17.915 24.165 17.2592 24.9741 17.2592C25.7832 17.2592 26.4389 17.915 26.4389 18.7241V29.3087L30.2143 25.5333C30.7861 24.9611 31.7139 24.9611 32.2857 25.5333C32.8579 26.1051 32.8579 27.0329 32.2857 27.6047L26.0098 33.881C25.4375 34.4532 24.5102 34.4528 23.9384 33.881L17.662 27.6047C17.0902 27.0329 17.0902 26.1051 17.662 25.5333ZM31.25 40.5861H18.6981C17.889 40.5861 17.2333 39.93 17.2333 39.1212C17.2333 38.3121 17.889 37.6564 18.6981 37.6564H31.25C32.0591 37.6564 32.7148 38.3121 32.7148 39.1212C32.7148 39.93 32.0591 40.5861 31.25 40.5861Z" fill="#4B9BF8" />
</symbol><symbol viewBox="0 0 40 40" fill="none" id="icon-docs">
<path d="M12 18.988H11V20.988H12V18.988ZM28 20.988H29V18.988H28V20.988ZM12 27.0002H11V29.0002H12V27.0002ZM28 29.0002H29V27.0002H28V29.0002ZM12 10.9932H11V12.9932H12V10.9932ZM28 12.9932H29V10.9932H28V12.9932ZM36 9.3335H37V8.91928L36.7071 8.62639L36 9.3335ZM28 1.3335L28.7071 0.626389L28.4142 0.333496H28V1.3335ZM12 20.988H28V18.988H12V20.988ZM12 29.0002H28V27.0002H12V29.0002ZM12 12.9932H28V10.9932H12V12.9932ZM33.3333 37.6668H6.66667V39.6668H33.3333V37.6668ZM5 36.0002V4.00016H3V36.0002H5ZM35 9.3335V36.0002H37V9.3335H35ZM6.66667 2.3335H28V0.333496H6.66667V2.3335ZM27.2929 2.0406L35.2929 10.0406L36.7071 8.62639L28.7071 0.626389L27.2929 2.0406ZM6.66667 37.6668C5.74619 37.6668 5 36.9206 5 36.0002H3C3 38.0252 4.64162 39.6668 6.66667 39.6668V37.6668ZM33.3333 39.6668C35.3584 39.6668 37 38.0252 37 36.0002H35C35 36.9206 34.2538 37.6668 33.3333 37.6668V39.6668ZM5 4.00016C5 3.07969 5.74619 2.3335 6.66667 2.3335V0.333496C4.64162 0.333496 3 1.97512 3 4.00016H5Z" fill="#4B9BF8" />
</symbol><symbol viewBox="0 0 30 30" fill="none" id="icon-download">
<path d="M28.1602 20.0039C27.498 20.0039 26.9648 20.5371 26.9648 21.1992V26.9648H3.03516V21.1992C3.03516 20.5371 2.50195 20.0039 1.83984 20.0039C1.17773 20.0039 0.644531 20.5371 0.644531 21.1992V28.1602C0.644531 28.8223 1.17773 29.3555 1.83984 29.3555H28.1602C28.8223 29.3555 29.3555 28.8223 29.3555 28.1602V21.1992C29.3555 20.5371 28.8223 20.0039 28.1602 20.0039Z" fill="#4B9BF8" />
<path d="M14.1211 21.4219C14.795 22.1016 15.6211 21.7266 15.8731 21.4219L22.7461 14.0273C23.1973 13.541 23.168 12.7852 22.6817 12.334C22.1954 11.8828 21.4395 11.9121 20.9942 12.3984L16.1954 17.5605V2.02148C16.1954 1.35937 15.6622 0.826172 15 0.826172C14.3379 0.826172 13.8047 1.35937 13.8047 2.02148V17.5664L9.0059 12.4043C8.55473 11.918 7.79887 11.8945 7.31255 12.3398C6.82622 12.791 6.80278 13.5469 7.24809 14.0332L14.1211 21.4219Z" fill="#4B9BF8" />
</symbol><symbol viewBox="0 0 18 18" fill="none" id="icon-edit">
<path d="M1.53516 11.1333L1.00483 10.603L0.785156 10.8227V11.1333H1.53516ZM11.1352 1.53333L11.6655 1.003C11.3726 0.710102 10.8977 0.710102 10.6048 1.003L11.1352 1.53333ZM16.4685 6.86666L16.9988 7.39699C17.2917 7.10409 17.2917 6.62922 16.9988 6.33633L16.4685 6.86666ZM6.86849 16.4667V17.2167H7.17915L7.39882 16.997L6.86849 16.4667ZM1.53516 16.4667H0.785156C0.785156 16.8809 1.12094 17.2167 1.53516 17.2167L1.53516 16.4667ZM2.06549 11.6637L11.6655 2.06366L10.6048 1.003L1.00483 10.603L2.06549 11.6637ZM10.6048 2.06366L15.9382 7.39699L16.9988 6.33633L11.6655 1.003L10.6048 2.06366ZM15.9382 6.33633L6.33816 15.9363L7.39882 16.997L16.9988 7.39699L15.9382 6.33633ZM6.86849 15.7167H1.53516V17.2167H6.86849V15.7167ZM2.28516 16.4667V11.1333H0.785156V16.4667H2.28516ZM7.40483 5.26366L12.7382 10.597L13.7988 9.53633L8.46549 4.20299L7.40483 5.26366ZM9.53516 17.2167H17.0018V15.7167H9.53516V17.2167Z" fill="#999999" />
</symbol><symbol viewBox="0 0 16 16" fill="none" id="icon-file">
<path d="M6.54563 0C7.51692 0 8.43004 0.378229 9.11682 1.06501C9.80366 1.75185 10.1819 2.66501 10.1819 3.6363V10.1819C10.1819 11.385 9.20322 12.3637 8.00007 12.3637C6.79702 12.3637 5.81831 11.3849 5.81831 10.1818V6.40478C5.81831 6.00313 6.14393 5.67751 6.54558 5.67751C6.94723 5.67751 7.27285 6.00313 7.27285 6.40478V10.1818C7.27285 10.5829 7.59915 10.9092 8.00007 10.9092C8.40109 10.9092 8.72739 10.5829 8.72739 10.1819V3.6363C8.72739 3.05352 8.50039 2.50559 8.08832 2.09352C7.6762 1.6814 7.12837 1.45449 6.54563 1.45449C5.34253 1.45449 4.36377 2.4332 4.36372 3.63621V10.909C4.36382 12.9141 5.99504 14.5454 8.00007 14.5454C8.97137 14.5454 9.88458 14.1672 10.5714 13.4804C11.2582 12.7936 11.6364 11.8804 11.6364 10.9091L11.6365 3.6363C11.6365 3.23461 11.9621 2.90903 12.3638 2.90903C12.7654 2.90903 13.0911 3.23466 13.0911 3.6363L13.091 10.9091C13.091 12.2689 12.5615 13.5474 11.5999 14.5089C10.6384 15.4705 9.35992 16 8.00007 16C5.19305 16 2.90928 13.7162 2.90918 10.9091V3.63626C2.90923 1.63122 4.54054 0 6.54563 0Z" fill="#4B9BF8" />
</symbol><symbol viewBox="0 0 30 30" fill="none" id="icon-hint">
<path d="M15 23.6426C15.809 23.6426 16.4648 22.9867 16.4648 22.1777C16.4648 21.3687 15.809 20.7129 15 20.7129C14.191 20.7129 13.5352 21.3687 13.5352 22.1777C13.5352 22.9867 14.191 23.6426 15 23.6426Z" fill="#4B9BF8" />
<path d="M15 0C6.70992 0 0 6.70881 0 15C0 23.2901 6.70881 30 15 30C23.2901 30 30 23.2912 30 15C30 6.70992 23.2912 0 15 0ZM15 27.6562C8.00525 27.6562 2.34375 21.9957 2.34375 15C2.34375 8.00525 8.00432 2.34375 15 2.34375C21.9947 2.34375 27.6562 8.00432 27.6562 15C27.6562 21.9947 21.9957 27.6562 15 27.6562Z" fill="#4B9BF8" />
<path d="M15 7.5293C12.4153 7.5293 10.3125 9.63211 10.3125 12.2168C10.3125 12.864 10.8371 13.3887 11.4844 13.3887C12.1316 13.3887 12.6562 12.864 12.6562 12.2168C12.6562 10.9245 13.7077 9.87305 15 9.87305C16.2923 9.87305 17.3438 10.9245 17.3438 12.2168C17.3438 13.5091 16.2923 14.5605 15 14.5605C14.3528 14.5605 13.8281 15.0852 13.8281 15.7324V18.6621C13.8281 19.3093 14.3528 19.834 15 19.834C15.6472 19.834 16.1719 19.3093 16.1719 18.6621V16.756C18.1914 16.2343 19.6875 14.397 19.6875 12.2168C19.6875 9.63211 17.5847 7.5293 15 7.5293Z" fill="#4B9BF8" />
</symbol><symbol viewBox="0 0 40 40" fill="none" id="icon-info">
<path d="M19.9992 0C8.95492 0 0 8.95492 0 19.9992C0 31.0434 8.95492 40 19.9992 40C31.0434 40 40 31.0434 40 19.9992C40 8.95492 31.0434 0 19.9992 0ZM24.1625 30.996C23.1331 31.4023 22.3137 31.7105 21.699 31.9238C21.0861 32.1371 20.3733 32.2438 19.5623 32.2438C18.3162 32.2438 17.346 31.939 16.6552 31.3312C15.9644 30.7234 15.6207 29.953 15.6207 29.0167C15.6207 28.6527 15.6461 28.2802 15.6969 27.901C15.7494 27.5217 15.8324 27.095 15.9458 26.6159L17.2343 22.0648C17.3477 21.6279 17.4459 21.2131 17.5238 20.8271C17.6017 20.4377 17.6389 20.0804 17.6389 19.7553C17.6389 19.1763 17.5187 18.7699 17.28 18.5414C17.0379 18.3128 16.5824 18.2011 15.9035 18.2011C15.5716 18.2011 15.2296 18.2502 14.8792 18.3534C14.5321 18.4601 14.2307 18.5566 13.9835 18.6514L14.3238 17.2495C15.167 16.9058 15.9746 16.6112 16.745 16.3674C17.5153 16.1202 18.2434 15.9983 18.9291 15.9983C20.1668 15.9983 21.1217 16.2997 21.7939 16.8957C22.4626 17.4933 22.7996 18.2705 22.7996 19.2254C22.7996 19.4235 22.7759 19.7723 22.7302 20.2701C22.6844 20.7695 22.5981 21.225 22.4728 21.6432L21.1911 26.1807C21.0861 26.5448 20.993 26.9613 20.9084 27.4269C20.8254 27.8925 20.7848 28.248 20.7848 28.4868C20.7848 29.0895 20.9185 29.501 21.1894 29.7194C21.4569 29.9378 21.9259 30.0478 22.5896 30.0478C22.9029 30.0478 23.2533 29.992 23.6495 29.8836C24.0423 29.7752 24.3268 29.6787 24.5062 29.5958L24.1625 30.996ZM23.9357 12.5782C23.338 13.1335 22.6184 13.4112 21.7769 13.4112C20.9371 13.4112 20.2125 13.1335 19.6097 12.5782C19.0104 12.0229 18.7073 11.3473 18.7073 10.5583C18.7073 9.77101 19.0121 9.09376 19.6097 8.53333C20.2125 7.97122 20.9371 7.69185 21.7769 7.69185C22.6184 7.69185 23.3397 7.97122 23.9357 8.53333C24.5333 9.09376 24.833 9.77101 24.833 10.5583C24.833 11.349 24.5333 12.0229 23.9357 12.5782Z" fill="#4B9BF8" />
</symbol><symbol viewBox="0 0 12 16" id="icon-link-external"><path fill="currentColor" fill-rule="evenodd" d="M11 10h1v3c0 .55-.45 1-1 1H1c-.55 0-1-.45-1-1V3c0-.55.45-1 1-1h3v1H1v10h10v-3zM6 2l2.25 2.25L5 7.5 6.5 9l3.25-3.25L12 8V2H6z" /></symbol><symbol viewBox="0 0 26 29" fill="none" id="icon-play">
<path d="M25.0937 14.5L0.286997 28.7894L0.286999 0.210581L25.0937 14.5Z" fill="white" />
</symbol><symbol viewBox="0 0 24 24" fill="none" id="icon-search">
<path d="M23.707 22.293L16.882 15.468C18.204 13.835 19 11.76 19 9.50002C19 4.26202 14.738 0 9.49997 0C4.26197 0 0 4.26197 0 9.49997C0 14.738 4.26202 19 9.50002 19C11.76 19 13.835 18.204 15.468 16.882L22.293 23.707C22.488 23.902 22.744 24 23 24C23.256 24 23.512 23.902 23.707 23.707C24.098 23.316 24.098 22.684 23.707 22.293ZM9.50002 17C5.364 17 2.00002 13.636 2.00002 9.49997C2.00002 5.36395 5.364 1.99997 9.50002 1.99997C13.636 1.99997 17 5.36395 17 9.49997C17 13.636 13.636 17 9.50002 17Z" fill="#111111" />
</symbol><symbol viewBox="0 0 9 12" fill="none" id="icon-triangle">
<path d="M9 6L-4.89399e-07 11.1962L-3.51373e-08 0.803847L9 6Z" fill="#4B9BF8" />
</symbol><symbol viewBox="0 0 40 40" fill="none" id="icon-zoom">
<g clip-path="url(#icon-zoom_clip0)">
<path d="M39.542 37.3316L28.2567 26.0463C33.3984 19.7905 33.0486 10.5038 27.2059 4.66117C20.9903 -1.55437 10.877 -1.55437 4.66142 4.66117C-1.55413 10.8767 -1.55413 20.9901 4.66142 27.2056C10.5025 33.0467 19.788 33.4004 26.0466 28.2565L37.3319 39.5418C37.9422 40.1521 38.9317 40.1521 39.542 39.5418C40.1524 38.9314 40.1524 37.942 39.542 37.3316ZM24.9958 24.9955C19.9989 29.9923 11.8684 29.9923 6.87157 24.9955C1.8747 19.9986 1.8747 11.8681 6.87157 6.87125C11.8683 1.87461 19.9988 1.87422 24.9958 6.87125C29.9927 11.8681 29.9927 19.9986 24.9958 24.9955Z" fill="white" />
<path d="M23.5859 14.3711H17.4968V8.28205C17.4968 7.41893 16.7971 6.71924 15.934 6.71924C15.0709 6.71924 14.3712 7.41893 14.3712 8.28205V14.3711H8.28211C7.41899 14.3711 6.7193 15.0708 6.7193 15.9339C6.7193 16.7971 7.41899 17.4967 8.28211 17.4967H14.3712V23.5858C14.3712 24.4489 15.0709 25.1486 15.934 25.1486C16.7971 25.1486 17.4968 24.4489 17.4968 23.5858V17.4967H23.5859C24.449 17.4967 25.1487 16.7971 25.1487 15.9339C25.1487 15.0708 24.449 14.3711 23.5859 14.3711Z" fill="white" />
</g>
<defs>

</defs>
</symbol><clipPath id="icon-zoom_clip0">
<rect width="40" height="40" fill="white" />
</clipPath></defs></svg>