<svg width="20" height="20" viewBox="0 0 20 20" fill="none" xmlns="http://www.w3.org/2000/svg">
<path d="M18.7734 13.3359C18.332 13.3359 17.9766 13.6914 17.9766 14.1328V17.9766H2.02344V14.1328C2.02344 13.6914 1.66797 13.3359 1.22656 13.3359C0.785156 13.3359 0.429688 13.6914 0.429688 14.1328V18.7734C0.429688 19.2148 0.785156 19.5703 1.22656 19.5703H18.7734C19.2148 19.5703 19.5703 19.2148 19.5703 18.7734V14.1328C19.5703 13.6914 19.2148 13.3359 18.7734 13.3359Z" fill="white"/>
<path d="M9.41507 14.2812C9.86429 14.7344 10.4151 14.4844 10.583 14.2812L15.1651 9.35156C15.4658 9.02734 15.4463 8.52344 15.1221 8.22266C14.7979 7.92188 14.294 7.94141 13.9971 8.26562L10.7979 11.707V1.34766C10.7979 0.90625 10.4424 0.550781 10.001 0.550781C9.5596 0.550781 9.20413 0.90625 9.20413 1.34766V11.7109L6.00491 8.26953C5.70413 7.94531 5.20023 7.92969 4.87601 8.22656C4.55179 8.52734 4.53616 9.03125 4.83304 9.35547L9.41507 14.2812Z" fill="white"/>
</svg>
