<svg width="18" height="14" viewBox="0 0 18 14" fill="none" xmlns="http://www.w3.org/2000/svg">
<path d="M1.53516 7.00002L0.838798 6.72148C0.767276 6.90029 0.767276 7.09975 0.838798 7.27856L1.53516 7.00002ZM16.4685 7.00002L17.1648 7.27856C17.2364 7.09976 17.2364 6.90028 17.1648 6.72148L16.4685 7.00002ZM9.00181 11.5834C6.61412 11.5834 4.93516 10.3974 3.82595 9.16496C3.27082 8.54815 2.86795 7.92879 2.60434 7.4636C2.47295 7.23174 2.37733 7.04025 2.31563 6.90937C2.28481 6.84399 2.26254 6.79392 2.24858 6.76171C2.24161 6.74561 2.23672 6.73399 2.23388 6.72718C2.23246 6.72377 2.23156 6.72156 2.23116 6.7206C2.23097 6.72012 2.2309 6.71995 2.23096 6.72009C2.23099 6.72016 2.23105 6.72032 2.23114 6.72055C2.23119 6.72066 2.23128 6.7209 2.2313 6.72095C2.23141 6.72121 2.23151 6.72148 1.53516 7.00002C0.838798 7.27856 0.838924 7.27888 0.839058 7.27921C0.839113 7.27935 0.839256 7.2797 0.839367 7.27998C0.83959 7.28054 0.839847 7.28117 0.840137 7.28189C0.840718 7.28333 0.841432 7.28509 0.842281 7.28717C0.84398 7.29134 0.846217 7.29678 0.848998 7.30346C0.85456 7.31683 0.862298 7.33516 0.872249 7.35812C0.892145 7.40403 0.920916 7.46855 0.958844 7.549C1.03464 7.70979 1.14735 7.93497 1.2993 8.20311C1.60235 8.73791 2.06614 9.45189 2.71101 10.1684C4.00179 11.6026 6.05616 13.0834 9.00181 13.0834V11.5834ZM1.53516 7.00002C2.23151 7.27856 2.23141 7.27883 2.2313 7.27909C2.23128 7.27914 2.23119 7.27938 2.23114 7.27949C2.23105 7.27972 2.23099 7.27988 2.23096 7.27995C2.2309 7.28009 2.23097 7.27992 2.23116 7.27944C2.23156 7.27848 2.23246 7.27627 2.23388 7.27286C2.23672 7.26605 2.24161 7.25443 2.24858 7.23833C2.26254 7.20612 2.28481 7.15605 2.31563 7.09067C2.37733 6.95979 2.47295 6.7683 2.60434 6.53644C2.86795 6.07125 3.27082 5.45189 3.82595 4.83508C4.93516 3.60262 6.61412 2.41669 9.00181 2.41669V0.916687C6.05616 0.916687 4.00179 2.39743 2.71101 3.83163C2.06614 4.54815 1.60235 5.26213 1.2993 5.79693C1.14735 6.06507 1.03464 6.29025 0.958844 6.45104C0.920916 6.53149 0.892145 6.59601 0.872249 6.64192C0.862298 6.66488 0.85456 6.68321 0.848998 6.69658C0.846217 6.70326 0.84398 6.7087 0.842281 6.71287C0.841432 6.71495 0.840718 6.71671 0.840137 6.71815C0.839847 6.71887 0.83959 6.7195 0.839367 6.72006C0.839256 6.72034 0.839113 6.72069 0.839058 6.72083C0.838924 6.72116 0.838798 6.72148 1.53516 7.00002ZM9.00181 2.41669C11.3895 2.41669 13.0685 3.60262 14.1777 4.83508C14.7328 5.45189 15.1357 6.07125 15.3993 6.53645C15.5307 6.7683 15.6263 6.95979 15.688 7.09067C15.7188 7.15605 15.7411 7.20612 15.7551 7.23833C15.762 7.25443 15.7669 7.26605 15.7698 7.27287C15.7712 7.27627 15.7721 7.27848 15.7725 7.27944C15.7727 7.27993 15.7727 7.2801 15.7727 7.27995C15.7727 7.27988 15.7726 7.27973 15.7725 7.2795C15.7725 7.27938 15.7724 7.27915 15.7723 7.27909C15.7722 7.27884 15.7721 7.27856 16.4685 7.00002C17.1648 6.72148 17.1647 6.72116 17.1646 6.72083C17.1645 6.72069 17.1644 6.72033 17.1643 6.72006C17.1641 6.7195 17.1638 6.71886 17.1635 6.71814C17.1629 6.71671 17.1622 6.71495 17.1614 6.71286C17.1597 6.7087 17.1574 6.70326 17.1546 6.69657C17.1491 6.68321 17.1413 6.66488 17.1314 6.64192C17.1115 6.596 17.0827 6.53149 17.0448 6.45104C16.969 6.29025 16.8563 6.06507 16.7043 5.79693C16.4013 5.26213 15.9375 4.54815 15.2926 3.83163C14.0018 2.39742 11.9475 0.916687 9.00181 0.916687V2.41669ZM16.4685 7.00002C15.7721 6.72148 15.7722 6.7212 15.7723 6.72095C15.7724 6.72089 15.7725 6.72066 15.7725 6.72054C15.7726 6.72031 15.7727 6.72016 15.7727 6.72009C15.7727 6.71994 15.7727 6.72011 15.7725 6.7206C15.7721 6.72156 15.7712 6.72377 15.7698 6.72717C15.7669 6.73399 15.762 6.74561 15.7551 6.76171C15.7411 6.79392 15.7188 6.84399 15.688 6.90937C15.6263 7.04025 15.5307 7.23174 15.3993 7.46359C15.1357 7.92879 14.7328 8.54815 14.1777 9.16496C13.0685 10.3974 11.3895 11.5834 9.00181 11.5834V13.0834C11.9475 13.0834 14.0018 11.6026 15.2926 10.1684C15.9375 9.45189 16.4013 8.73791 16.7043 8.20311C16.8563 7.93497 16.969 7.70979 17.0448 7.549C17.0827 7.46855 17.1115 7.40404 17.1314 7.35812C17.1413 7.33516 17.1491 7.31683 17.1546 7.30347C17.1574 7.29678 17.1597 7.29134 17.1614 7.28718C17.1622 7.28509 17.1629 7.28333 17.1635 7.2819C17.1638 7.28118 17.1641 7.28054 17.1643 7.27998C17.1644 7.27971 17.1645 7.27935 17.1646 7.27921C17.1647 7.27888 17.1648 7.27856 16.4685 7.00002ZM9.00182 8.38335C8.23783 8.38335 7.61849 7.76401 7.61849 7.00002H6.11849C6.11849 8.59244 7.4094 9.88335 9.00182 9.88335V8.38335ZM10.3852 7.00002C10.3852 7.76401 9.76582 8.38335 9.00182 8.38335V9.88335C10.5942 9.88335 11.8852 8.59244 11.8852 7.00002H10.3852ZM9.00182 5.61669C9.76582 5.61669 10.3852 6.23603 10.3852 7.00002H11.8852C11.8852 5.4076 10.5942 4.11669 9.00182 4.11669V5.61669ZM9.00182 4.11669C7.4094 4.11669 6.11849 5.4076 6.11849 7.00002H7.61849C7.61849 6.23603 8.23783 5.61669 9.00182 5.61669V4.11669Z" fill="#999999"/>
</svg>
