<svg width="18" height="9" viewBox="0 0 18 9" fill="none" xmlns="http://www.w3.org/2000/svg">
<path d="M9.00181 5.38326C6.61412 5.38326 4.93516 4.19733 3.82595 2.96487C3.27082 2.34806 2.86795 1.7287 2.60434 1.2635C2.47295 1.03165 2.37733 0.84016 2.31563 0.709281C2.28481 0.643901 2.26254 0.593829 2.24858 0.561619C2.24161 0.545519 2.23672 0.533901 2.23388 0.527084C2.23246 0.523676 2.23156 0.52147 2.23116 0.520506C2.23097 0.520025 2.2309 0.519854 2.23096 0.519998C2.23099 0.520071 2.23105 0.520222 2.23114 0.520453C2.23119 0.520568 2.23128 0.520802 2.2313 0.520859C2.23141 0.521112 2.23151 0.521386 1.53516 0.799927C0.838798 1.07847 0.838924 1.07878 0.839058 1.07912C0.839113 1.07925 0.839256 1.07961 0.839367 1.07989C0.83959 1.08044 0.839847 1.08108 0.840137 1.0818C0.840718 1.08323 0.841432 1.085 0.842281 1.08708C0.84398 1.09124 0.846217 1.09669 0.848998 1.10337C0.85456 1.11673 0.862298 1.13506 0.872249 1.15803C0.892145 1.20394 0.920916 1.26845 0.958844 1.34891C1.03464 1.50969 1.14735 1.73487 1.2993 2.00302C1.60235 2.53782 2.06614 3.2518 2.71101 3.96832C4.00179 5.40252 6.05616 6.88326 9.00181 6.88326V5.38326ZM16.4685 0.799927C15.7721 0.521382 15.7722 0.521109 15.7723 0.520856C15.7724 0.520798 15.7725 0.520565 15.7725 0.52045C15.7726 0.520219 15.7727 0.520067 15.7727 0.519995C15.7727 0.51985 15.7727 0.520021 15.7725 0.520503C15.7721 0.521466 15.7712 0.523672 15.7698 0.52708C15.7669 0.533897 15.762 0.545516 15.7551 0.561615C15.7411 0.593826 15.7188 0.643897 15.688 0.709277C15.6263 0.840156 15.5307 1.03164 15.3993 1.2635C15.1357 1.7287 14.7328 2.34806 14.1777 2.96487C13.0685 4.19733 11.3895 5.38326 9.00181 5.38326V6.88326C11.9475 6.88326 14.0018 5.40252 15.2926 3.96832C15.9375 3.2518 16.4013 2.53782 16.7043 2.00302C16.8563 1.73488 16.969 1.5097 17.0448 1.34891C17.0827 1.26846 17.1115 1.20394 17.1314 1.15803C17.1413 1.13507 17.1491 1.11674 17.1546 1.10337C17.1574 1.09669 17.1597 1.09125 17.1614 1.08708C17.1622 1.085 17.1629 1.08324 17.1635 1.0818C17.1638 1.08108 17.1641 1.08045 17.1643 1.07989C17.1644 1.07961 17.1645 1.07926 17.1646 1.07912C17.1647 1.07879 17.1648 1.07847 16.4685 0.799927ZM9.75182 8.79992L9.75181 6.13326L8.25181 6.13327L8.25182 8.79993L9.75182 8.79992ZM2.59882 7.19692L4.73215 5.06359L3.67149 4.00293L1.53816 6.13626L2.59882 7.19692ZM13.2715 5.06359L15.4048 7.19692L16.4655 6.13626L14.3322 4.00293L13.2715 5.06359Z" fill="#999999"/>
</svg>
