<svg width="22" height="22" viewBox="0 0 22 22" fill="none" xmlns="http://www.w3.org/2000/svg">
<path fill-rule="evenodd" clip-rule="evenodd" d="M21.5063 21.5061C21.8968 21.1156 21.8968 20.4824 21.5063 20.0919L12.3138 10.8995L21.5061 1.7072C21.8966 1.31668 21.8966 0.683514 21.5061 0.29299C21.1156 -0.0975345 20.4824 -0.097534 20.0919 0.29299L10.8996 9.48524L1.70728 0.292893C1.31676 -0.097631 0.683595 -0.0976311 0.293071 0.292893C-0.0974532 0.683417 -0.0974527 1.31658 0.293072 1.70711L9.48542 10.8995L0.292893 20.092C-0.097631 20.4825 -0.0976311 21.1157 0.292893 21.5062C0.683417 21.8967 1.31658 21.8967 1.70711 21.5062L10.8996 12.3137L20.0921 21.5061C20.4826 21.8966 21.1157 21.8966 21.5063 21.5061Z" fill="#888888"/>
</svg>
