<svg width="18" height="18" viewBox="0 0 18 18" fill="none" xmlns="http://www.w3.org/2000/svg">
<path d="M1.53516 11.1333L1.00483 10.603L0.785156 10.8227V11.1333H1.53516ZM11.1352 1.53333L11.6655 1.003C11.3726 0.710102 10.8977 0.710102 10.6048 1.003L11.1352 1.53333ZM16.4685 6.86666L16.9988 7.39699C17.2917 7.10409 17.2917 6.62922 16.9988 6.33633L16.4685 6.86666ZM6.86849 16.4667V17.2167H7.17915L7.39882 16.997L6.86849 16.4667ZM1.53516 16.4667H0.785156C0.785156 16.8809 1.12094 17.2167 1.53516 17.2167L1.53516 16.4667ZM2.06549 11.6637L11.6655 2.06366L10.6048 1.003L1.00483 10.603L2.06549 11.6637ZM10.6048 2.06366L15.9382 7.39699L16.9988 6.33633L11.6655 1.003L10.6048 2.06366ZM15.9382 6.33633L6.33816 15.9363L7.39882 16.997L16.9988 7.39699L15.9382 6.33633ZM6.86849 15.7167H1.53516V17.2167H6.86849V15.7167ZM2.28516 16.4667V11.1333H0.785156V16.4667H2.28516ZM7.40483 5.26366L12.7382 10.597L13.7988 9.53633L8.46549 4.20299L7.40483 5.26366ZM9.53516 17.2167H17.0018V15.7167H9.53516V17.2167Z" fill="#999999"/>
</svg>
