<svg width="40" height="40" viewBox="0 0 40 40" fill="none" xmlns="http://www.w3.org/2000/svg">
<g clip-path="url(#clip0)">
<path d="M39.542 37.3316L28.2567 26.0463C33.3984 19.7905 33.0486 10.5038 27.2059 4.66117C20.9903 -1.55437 10.877 -1.55437 4.66142 4.66117C-1.55413 10.8767 -1.55413 20.9901 4.66142 27.2056C10.5025 33.0467 19.788 33.4004 26.0466 28.2565L37.3319 39.5418C37.9422 40.1521 38.9317 40.1521 39.542 39.5418C40.1524 38.9314 40.1524 37.942 39.542 37.3316ZM24.9958 24.9955C19.9989 29.9923 11.8684 29.9923 6.87157 24.9955C1.8747 19.9986 1.8747 11.8681 6.87157 6.87125C11.8683 1.87461 19.9988 1.87422 24.9958 6.87125C29.9927 11.8681 29.9927 19.9986 24.9958 24.9955Z" fill="white"/>
<path d="M23.5859 14.3711H17.4968V8.28205C17.4968 7.41893 16.7971 6.71924 15.934 6.71924C15.0709 6.71924 14.3712 7.41893 14.3712 8.28205V14.3711H8.28211C7.41899 14.3711 6.7193 15.0708 6.7193 15.9339C6.7193 16.7971 7.41899 17.4967 8.28211 17.4967H14.3712V23.5858C14.3712 24.4489 15.0709 25.1486 15.934 25.1486C16.7971 25.1486 17.4968 24.4489 17.4968 23.5858V17.4967H23.5859C24.449 17.4967 25.1487 16.7971 25.1487 15.9339C25.1487 15.0708 24.449 14.3711 23.5859 14.3711Z" fill="white"/>
</g>
<defs>
<clipPath id="clip0">
<rect width="40" height="40" fill="white"/>
</clipPath>
</defs>
</svg>
