<svg width="10" height="17" viewBox="0 0 10 17" fill="#4b9bf8" xmlns="http://www.w3.org/2000/svg">
<path fill-rule="evenodd" clip-rule="evenodd" d="M0.701462 0.712615C0.313996 1.10617 0.318934 1.73932 0.712493 2.12679L7.12551 8.44053L0.811416 14.8539C0.42395 15.2475 0.428889 15.8806 0.822448 16.2681C1.21601 16.6555 1.84915 16.6506 2.23662 16.257L9.22897 9.15475C9.23697 9.14714 9.24487 9.13938 9.25267 9.13145C9.62128 8.75704 9.63475 8.1658 9.29633 7.77553C9.27892 7.75543 9.26057 7.73585 9.24128 7.71687C9.23907 7.71469 9.23685 7.71253 9.23463 7.71038L2.11563 0.701584C1.72207 0.314118 1.08893 0.319056 0.701462 0.712615Z" />
</svg>
