<svg width="11" height="16" viewBox="0 0 11 16" fill="none" xmlns="http://www.w3.org/2000/svg">
<path fill-rule="evenodd" clip-rule="evenodd" d="M9.8376 15.6717C10.2251 15.2781 10.2201 14.645 9.82657 14.2575L3.49922 8.02809L9.72777 1.70162C10.1152 1.30806 10.1103 0.674912 9.71674 0.287446C9.32318 -0.10002 8.69003 -0.0950815 8.30257 0.298477L1.70696 6.99779C1.55265 7.04475 1.40751 7.1298 1.28639 7.25283C1.07225 7.47033 0.977968 7.76102 1.0029 8.04297C0.979256 8.32845 1.07781 8.62197 1.2979 8.83866C1.42158 8.96042 1.56891 9.04343 1.72484 9.0878L8.42343 15.6827C8.81699 16.0702 9.45013 16.0652 9.8376 15.6717Z" fill="white"/>
</svg>
