
<svg width="16" height="16" viewBox="0 0 16 16" fill="none" xmlns="http://www.w3.org/2000/svg">
<path d="M6.54563 0C7.51692 0 8.43004 0.378229 9.11682 1.06501C9.80366 1.75185 10.1819 2.66501 10.1819 3.6363V10.1819C10.1819 11.385 9.20322 12.3637 8.00007 12.3637C6.79702 12.3637 5.81831 11.3849 5.81831 10.1818V6.40478C5.81831 6.00313 6.14393 5.67751 6.54558 5.67751C6.94723 5.67751 7.27285 6.00313 7.27285 6.40478V10.1818C7.27285 10.5829 7.59915 10.9092 8.00007 10.9092C8.40109 10.9092 8.72739 10.5829 8.72739 10.1819V3.6363C8.72739 3.05352 8.50039 2.50559 8.08832 2.09352C7.6762 1.6814 7.12837 1.45449 6.54563 1.45449C5.34253 1.45449 4.36377 2.4332 4.36372 3.63621V10.909C4.36382 12.9141 5.99504 14.5454 8.00007 14.5454C8.97137 14.5454 9.88458 14.1672 10.5714 13.4804C11.2582 12.7936 11.6364 11.8804 11.6364 10.9091L11.6365 3.6363C11.6365 3.23461 11.9621 2.90903 12.3638 2.90903C12.7654 2.90903 13.0911 3.23466 13.0911 3.6363L13.091 10.9091C13.091 12.2689 12.5615 13.5474 11.5999 14.5089C10.6384 15.4705 9.35992 16 8.00007 16C5.19305 16 2.90928 13.7162 2.90918 10.9091V3.63626C2.90923 1.63122 4.54054 0 6.54563 0Z" fill="#4B9BF8"/>
</svg>
