<svg width="40" height="40" viewBox="0 0 40 40" fill="none" xmlns="http://www.w3.org/2000/svg">
<path d="M19.9992 0C8.95492 0 0 8.95492 0 19.9992C0 31.0434 8.95492 40 19.9992 40C31.0434 40 40 31.0434 40 19.9992C40 8.95492 31.0434 0 19.9992 0ZM24.1625 30.996C23.1331 31.4023 22.3137 31.7105 21.699 31.9238C21.0861 32.1371 20.3733 32.2438 19.5623 32.2438C18.3162 32.2438 17.346 31.939 16.6552 31.3312C15.9644 30.7234 15.6207 29.953 15.6207 29.0167C15.6207 28.6527 15.6461 28.2802 15.6969 27.901C15.7494 27.5217 15.8324 27.095 15.9458 26.6159L17.2343 22.0648C17.3477 21.6279 17.4459 21.2131 17.5238 20.8271C17.6017 20.4377 17.6389 20.0804 17.6389 19.7553C17.6389 19.1763 17.5187 18.7699 17.28 18.5414C17.0379 18.3128 16.5824 18.2011 15.9035 18.2011C15.5716 18.2011 15.2296 18.2502 14.8792 18.3534C14.5321 18.4601 14.2307 18.5566 13.9835 18.6514L14.3238 17.2495C15.167 16.9058 15.9746 16.6112 16.745 16.3674C17.5153 16.1202 18.2434 15.9983 18.9291 15.9983C20.1668 15.9983 21.1217 16.2997 21.7939 16.8957C22.4626 17.4933 22.7996 18.2705 22.7996 19.2254C22.7996 19.4235 22.7759 19.7723 22.7302 20.2701C22.6844 20.7695 22.5981 21.225 22.4728 21.6432L21.1911 26.1807C21.0861 26.5448 20.993 26.9613 20.9084 27.4269C20.8254 27.8925 20.7848 28.248 20.7848 28.4868C20.7848 29.0895 20.9185 29.501 21.1894 29.7194C21.4569 29.9378 21.9259 30.0478 22.5896 30.0478C22.9029 30.0478 23.2533 29.992 23.6495 29.8836C24.0423 29.7752 24.3268 29.6787 24.5062 29.5958L24.1625 30.996ZM23.9357 12.5782C23.338 13.1335 22.6184 13.4112 21.7769 13.4112C20.9371 13.4112 20.2125 13.1335 19.6097 12.5782C19.0104 12.0229 18.7073 11.3473 18.7073 10.5583C18.7073 9.77101 19.0121 9.09376 19.6097 8.53333C20.2125 7.97122 20.9371 7.69185 21.7769 7.69185C22.6184 7.69185 23.3397 7.97122 23.9357 8.53333C24.5333 9.09376 24.833 9.77101 24.833 10.5583C24.833 11.349 24.5333 12.0229 23.9357 12.5782Z" fill="#4B9BF8"/>
</svg>
