<svg width="50" height="50" viewBox="0 0 50 50" fill="none" xmlns="http://www.w3.org/2000/svg">
<path d="M17.2333 9.30977V0H17.1288C16.7404 0 16.3677 0.154495 16.0931 0.429153L6.67915 9.84306C6.4045 10.1177 6.25 10.4904 6.25 10.8788V10.9833H15.5602C16.4825 10.9833 17.2333 10.2325 17.2333 9.30977Z" fill="#4B9BF8"/>
<path d="M39.0953 0H20.163V9.30977C20.163 11.8477 18.0981 13.9126 15.5602 13.9126H6.25V45.3972C6.25 47.9351 8.3149 50 10.8528 50H39.0953C41.626 50 43.6981 47.9538 43.6981 45.3972V4.60281C43.6981 2.07214 41.6519 0 39.0953 0ZM17.662 25.5333C18.2343 24.9611 19.1616 24.9611 19.7338 25.5333L23.5092 29.3087V18.7241C23.5092 17.915 24.165 17.2592 24.9741 17.2592C25.7832 17.2592 26.4389 17.915 26.4389 18.7241V29.3087L30.2143 25.5333C30.7861 24.9611 31.7139 24.9611 32.2857 25.5333C32.8579 26.1051 32.8579 27.0329 32.2857 27.6047L26.0098 33.881C25.4375 34.4532 24.5102 34.4528 23.9384 33.881L17.662 27.6047C17.0902 27.0329 17.0902 26.1051 17.662 25.5333ZM31.25 40.5861H18.6981C17.889 40.5861 17.2333 39.93 17.2333 39.1212C17.2333 38.3121 17.889 37.6564 18.6981 37.6564H31.25C32.0591 37.6564 32.7148 38.3121 32.7148 39.1212C32.7148 39.93 32.0591 40.5861 31.25 40.5861Z" fill="#4B9BF8"/>
</svg>
