<svg  width="41" height="14" viewBox="0 0 41 14" fill="none" xmlns="http://www.w3.org/2000/svg">
<path fill-rule="evenodd" clip-rule="evenodd" d="M34.1212 0.292893C33.7306 -0.0976311 33.0975 -0.097631 32.707 0.292893C32.3164 0.683418 32.3164 1.31658 32.707 1.70711L36.5856 5.58579H1C0.447715 5.58579 0 6.0335 0 6.58579C0 7.13807 0.447714 7.58579 0.999999 7.58579H36.7279L32.7071 11.6066C32.3166 11.9971 32.3166 12.6303 32.7071 13.0208C33.0976 13.4113 33.7308 13.4113 34.1213 13.0208L39.7782 7.36394C40.1687 6.97342 40.1687 6.34025 39.7782 5.94973C39.7745 5.94607 39.7708 5.94245 39.7671 5.93886L39.7174 5.88908C39.7106 5.8821 39.7037 5.87521 39.6967 5.86843L34.1212 0.292893Z" fill="white"/>
</svg>
