<svg width="16" height="16" viewBox="0 0 16 16" fill="none" xmlns="http://www.w3.org/2000/svg">
<path fill-rule="evenodd" clip-rule="evenodd" d="M14.8491 14.8501C15.2396 14.4595 15.2396 13.8264 14.8491 13.4359L9.19252 7.77928L14.8491 2.12268C15.2396 1.73216 15.2396 1.09899 14.8491 0.708467C14.4586 0.317943 13.8254 0.317943 13.4349 0.708467L7.7783 6.36507L2.12117 0.707932C1.73064 0.317408 1.09748 0.317408 0.706956 0.707932C0.316431 1.09846 0.316431 1.73162 0.706956 2.12215L6.36409 7.77928L0.706984 13.4364C0.316459 13.8269 0.316459 14.4601 0.706984 14.8506C1.09751 15.2411 1.73067 15.2411 2.1212 14.8506L7.7783 9.1935L13.4349 14.8501C13.8254 15.2406 14.4586 15.2406 14.8491 14.8501Z" fill="#FF5858"/>
</svg>
