<svg width="30" height="30" viewBox="0 0 30 30" fill="none" xmlns="http://www.w3.org/2000/svg">
<path d="M10 11C10 8.23858 12.2386 6 15 6C17.7614 6 20 8.23858 20 11C20 13.7614 17.7614 16 15 16C12.2386 16 10 13.7614 10 11Z" fill="#999999"/>
<path fill-rule="evenodd" clip-rule="evenodd" d="M15 0C6.71573 0 0 6.71573 0 15C0 23.2843 6.71573 30 15 30C23.2843 30 30 23.2843 30 15C30 6.71573 23.2843 0 15 0ZM2 15C2 7.8203 7.8203 2 15 2C22.1797 2 28 7.8203 28 15C28 18.6991 26.455 22.0374 23.9751 24.4047C23.6731 20.8172 20.6655 18 17 18H13C9.33448 18 6.3269 20.8172 6.02493 24.4047C3.54501 22.0374 2 18.6991 2 15Z" fill="#999999"/>
</svg>
