<svg width="40" height="40" viewBox="0 0 40 40" fill="none" xmlns="http://www.w3.org/2000/svg">
<path d="M12 18.988H11V20.988H12V18.988ZM28 20.988H29V18.988H28V20.988ZM12 27.0002H11V29.0002H12V27.0002ZM28 29.0002H29V27.0002H28V29.0002ZM12 10.9932H11V12.9932H12V10.9932ZM28 12.9932H29V10.9932H28V12.9932ZM36 9.3335H37V8.91928L36.7071 8.62639L36 9.3335ZM28 1.3335L28.7071 0.626389L28.4142 0.333496H28V1.3335ZM12 20.988H28V18.988H12V20.988ZM12 29.0002H28V27.0002H12V29.0002ZM12 12.9932H28V10.9932H12V12.9932ZM33.3333 37.6668H6.66667V39.6668H33.3333V37.6668ZM5 36.0002V4.00016H3V36.0002H5ZM35 9.3335V36.0002H37V9.3335H35ZM6.66667 2.3335H28V0.333496H6.66667V2.3335ZM27.2929 2.0406L35.2929 10.0406L36.7071 8.62639L28.7071 0.626389L27.2929 2.0406ZM6.66667 37.6668C5.74619 37.6668 5 36.9206 5 36.0002H3C3 38.0252 4.64162 39.6668 6.66667 39.6668V37.6668ZM33.3333 39.6668C35.3584 39.6668 37 38.0252 37 36.0002H35C35 36.9206 34.2538 37.6668 33.3333 37.6668V39.6668ZM5 4.00016C5 3.07969 5.74619 2.3335 6.66667 2.3335V0.333496C4.64162 0.333496 3 1.97512 3 4.00016H5Z" fill="#4B9BF8"/>
</svg>
