<svg width="30" height="30" viewBox="0 0 30 30" fill="none" xmlns="http://www.w3.org/2000/svg">
<path d="M28.1602 20.0039C27.498 20.0039 26.9648 20.5371 26.9648 21.1992V26.9648H3.03516V21.1992C3.03516 20.5371 2.50195 20.0039 1.83984 20.0039C1.17773 20.0039 0.644531 20.5371 0.644531 21.1992V28.1602C0.644531 28.8223 1.17773 29.3555 1.83984 29.3555H28.1602C28.8223 29.3555 29.3555 28.8223 29.3555 28.1602V21.1992C29.3555 20.5371 28.8223 20.0039 28.1602 20.0039Z" fill="#4B9BF8"/>
<path d="M14.1211 21.4219C14.795 22.1016 15.6211 21.7266 15.8731 21.4219L22.7461 14.0273C23.1973 13.541 23.168 12.7852 22.6817 12.334C22.1954 11.8828 21.4395 11.9121 20.9942 12.3984L16.1954 17.5605V2.02148C16.1954 1.35937 15.6622 0.826172 15 0.826172C14.3379 0.826172 13.8047 1.35937 13.8047 2.02148V17.5664L9.0059 12.4043C8.55473 11.918 7.79887 11.8945 7.31255 12.3398C6.82622 12.791 6.80278 13.5469 7.24809 14.0332L14.1211 21.4219Z" fill="#4B9BF8"/>
</svg>
