<svg width="80" height="80" viewBox="0 0 80 80" fill="none" xmlns="http://www.w3.org/2000/svg">
<path d="M56.8555 41.2903C57.6222 41.2903 58.3638 41.5146 59.0026 41.9405L68.0141 47.9486C69.0789 48.6568 70.3163 49.0323 71.5934 49.0323H80V46.4516H71.5946C70.8285 46.4516 70.0851 46.2273 69.4462 45.8014L65.8064 43.3745V0H16.7742V7.74194H0V80H49.0323V72.2581H65.8064V61.4025C65.8877 61.3829 65.9715 61.3766 66.0528 61.3571L72.0552 59.857C73.3871 59.5237 74.7574 59.3548 76.129 59.3548H80V56.7742H76.129C74.547 56.7742 72.965 56.9689 71.4296 57.3526L65.4272 58.8527C62.3419 59.6232 59.0581 59.4979 56.044 58.4929L53.8697 57.7678C51.8901 57.1081 49.8286 56.7742 47.7419 56.7742H36.4825C36.4825 54.6402 38.2195 52.9032 40.3535 52.9032H54.547C56.6816 52.9032 58.418 51.1662 58.418 49.0323C58.418 47.0527 56.9185 45.4347 55 45.2067L56.0591 41.2903H56.8555ZM55.2256 60.9406C57.2051 61.6016 59.2673 61.9355 61.3533 61.9355C61.9796 61.9355 62.604 61.8813 63.2258 61.8208V69.6774H49.0323V65.4568C49.4853 64.9345 49.8362 64.3164 50.0246 63.6171L51.0811 59.7033C51.7458 59.8387 52.4049 60 53.0519 60.2167L55.2256 60.9406ZM48.4955 59.3844L47.534 62.9429C47.2839 63.8697 46.439 64.5161 45.4801 64.5161H45.0617C43.8892 64.5161 42.9354 63.5629 42.9354 62.3897C42.9354 62.2014 42.9599 62.0155 43.0091 61.8347L43.6788 59.3548H47.7419C47.9933 59.3548 48.2441 59.3744 48.4955 59.3844ZM41.0049 59.3548L40.5173 61.1599C40.4089 61.56 40.3547 61.9727 40.3547 62.3897C40.3547 64.1343 41.3199 65.6426 42.7331 66.4554L42.328 68.0733L44.8311 68.6996L45.2325 67.0968H45.4801C45.8128 67.0968 46.1353 67.0501 46.4516 66.9834V77.4193H2.58065V10.3226H19.3548V2.58065H63.2258V41.6545L60.4347 39.7933C59.3706 39.0852 58.1332 38.7097 56.8555 38.7097H56.7559L62.1264 18.8401C62.2348 18.44 62.2889 18.0273 62.2889 17.6103C62.2889 15.0145 60.177 12.9032 57.5819 12.9032H57.1636C55.0416 12.9032 53.1729 14.334 52.6191 16.3829L49.0323 29.6554V7.74194H21.9355V10.3226H46.4516V38.7097H43.7821C42.3778 38.7097 41.0553 39.1753 39.9496 40H27.0968V42.5806H37.2385L34.6579 45.1613H27.0968V47.7419H32.0785L29.9225 49.8979C29.1614 50.6578 28.7418 51.6696 28.7418 52.747C28.7418 54.9679 30.5481 56.7742 32.7703 56.7742C33.1678 56.7742 33.5509 56.698 33.9226 56.5871C33.9214 56.6501 33.9031 56.7099 33.9031 56.7742C33.9031 58.1975 35.0605 59.3548 36.4837 59.3548H41.0049ZM50.9444 50.3226H46.1202L51.5688 30.1625L55.9948 31.6375L50.9444 50.3226ZM41.0452 42.4231C41.7666 41.703 42.764 41.2903 43.7821 41.2903H45.8877L44.8349 45.1846C43.2025 45.2438 41.6721 45.889 40.511 47.0501L33.7922 53.7689C33.5226 54.0386 33.1496 54.1935 32.769 54.1935C31.9701 54.1935 31.3212 53.5446 31.3212 52.747C31.3212 52.3601 31.4724 51.9972 31.7458 51.7238L41.0452 42.4231ZM42.3356 48.8747C42.8232 48.3871 43.4438 48.0544 44.106 47.8812L43.4463 50.3226H40.889L42.3356 48.8747ZM59.6346 18.1666L58.0544 24.0127L53.6284 22.5378L55.1096 17.0571C55.361 16.1303 56.2053 15.4839 57.1636 15.4839H57.5819C58.755 15.4839 59.7083 16.4371 59.7083 17.6103C59.7083 17.7986 59.6837 17.9845 59.6346 18.1666ZM52.9549 25.0334L57.3809 26.5083L56.6683 29.1419L52.2423 27.667L52.9549 25.0334ZM54.547 47.7419C55.2583 47.7419 55.8373 48.3216 55.8373 49.0323C55.8373 49.7429 55.2583 50.3226 54.547 50.3226H53.6171L54.3151 47.7419H54.547Z" fill="white"/>
<path d="M38.7098 12.9033H5.16138V25.8065H38.7098V12.9033ZM36.1291 23.2259H7.74202V15.484H36.1291V23.2259Z" fill="white"/>
<path d="M10.3228 18.0645H12.9034V20.6451H10.3228V18.0645Z" fill="white"/>
<path d="M15.4839 18.0645H18.0645V20.6451H15.4839V18.0645Z" fill="white"/>
<path d="M20.6453 18.0645H23.2259V20.6451H20.6453V18.0645Z" fill="white"/>
<path d="M25.8066 18.0645H28.3873V20.6451H25.8066V18.0645Z" fill="white"/>
<path d="M30.9675 18.0645H33.5482V20.6451H30.9675V18.0645Z" fill="white"/>
<path d="M20.6452 41.2908H18.0646V46.452H7.74202V36.1295H15.484V33.5488H5.16138V49.0327H20.6452V41.2908Z" fill="white"/>
<path d="M24.894 28.7646L12.9031 40.7556L11.2348 39.0872L9.41016 40.9118L12.9031 44.4048L26.7186 30.5892L24.894 28.7646Z" fill="white"/>
<path d="M18.0646 68.3866H7.74202V58.064H15.484V55.4834H5.16138V70.9673H20.6452V63.2253H18.0646V68.3866Z" fill="white"/>
<path d="M11.2348 61.0228L9.41016 62.8474L12.9031 66.3403L26.7186 52.5248L24.894 50.7002L12.9031 62.6911L11.2348 61.0228Z" fill="white"/>
<path d="M41.2903 70.9678H43.8709V73.5484H41.2903V70.9678Z" fill="white"/>
<path d="M24.5161 70.9678H38.7097V73.5484H24.5161V70.9678Z" fill="white"/>
<path d="M27.0969 34.8389H43.8711V37.4195H27.0969V34.8389Z" fill="white"/>
</svg>
