<svg width="80" height="80" viewBox="0 0 80 80" fill="none" xmlns="http://www.w3.org/2000/svg">
<g clip-path="url(#clip0_1216_903)">
<path d="M18.9885 23.373H38.8574C40.3726 23.373 40.3726 21.0293 38.8574 21.0293H18.9885C17.4732 21.0293 17.4732 23.373 18.9885 23.373Z" fill="white"/>
<path d="M18.9885 32.4682H18.9894L35.2646 32.4561C36.7446 32.455 36.7102 30.1123 35.2627 30.1123L18.9875 30.1245C17.4729 30.1256 17.4739 32.4682 18.9885 32.4682Z" fill="white"/>
<path d="M18.9886 41.563H18.9896L32.6086 41.5508C34.0886 41.5494 34.0539 39.207 32.6064 39.207L18.9875 39.2192C17.4728 39.2206 17.474 41.563 18.9886 41.563Z" fill="white"/>
<path d="M18.9885 50.6566H18.9894L32.8662 50.6445C34.3462 50.6431 34.3116 48.3008 32.8641 48.3008L18.9874 48.3128C17.4729 48.3142 17.474 50.6566 18.9885 50.6566Z" fill="white"/>
<path d="M38.5396 57.3955C38.5395 57.3955 38.5391 57.3955 38.539 57.3955L18.9882 57.4075C17.5082 57.4086 17.5423 59.7513 18.9896 59.7513L38.5404 59.7393C40.0551 59.7382 40.0543 57.3955 38.5396 57.3955Z" fill="white"/>
<path d="M38.2818 66.4902C38.2816 66.4902 38.2813 66.4902 38.281 66.4902L18.9877 66.5023C17.5077 66.5034 17.5418 68.846 18.9893 68.846L38.2825 68.834C39.7972 68.8329 39.7964 66.4902 38.2818 66.4902Z" fill="white"/>
<path d="M80.0007 41.683C80.0016 41.5305 79.9837 41.3791 79.9313 41.235L74.0457 25.0523C73.8482 24.5675 73.4579 24.2786 72.8749 24.1855H67.2162C66.6896 20.5592 63.7962 17.6916 60.1582 17.2023V11.3248C60.1582 9.82406 58.9374 8.60281 57.4366 8.60281H55.7463V7.13984C55.7463 5.63906 54.5256 4.41781 53.0249 4.41781H51.3301V2.72203C51.3301 1.22109 50.1091 0 48.6085 0H2.72336C1.22273 0 0.00195312 1.22109 0.00195312 2.72203V68.6753C0.00195312 70.1761 1.22273 71.3973 2.72336 71.3973H4.4182V73.093C4.4182 74.5938 5.63898 75.815 7.1432 75.815L8.82992 75.81V77.2781C8.82992 78.7789 10.0507 80.0002 11.5513 80.0002H48.1576C48.4724 80.0002 48.7698 79.8681 48.9943 79.6488L59.8127 68.8816C60.0338 68.6617 60.1579 68.3628 60.1579 68.0511V59.9056H62.3818C63.8969 59.9056 63.8969 57.5619 62.3818 57.5619H47.8824C48.387 55.887 49.9437 54.6634 51.7807 54.6634H66.326C68.163 54.6634 69.7198 55.887 70.2243 57.5619H68.5716C67.0565 57.5619 67.0565 59.9056 68.5716 59.9056H71.568C72.2152 59.9056 72.7399 59.3811 72.7399 58.7337C72.7399 55.197 69.8626 52.3197 66.326 52.3197H62.4612V26.5478L71.3059 26.5294L65.9574 41.2352C65.9043 41.3817 65.8799 41.5433 65.8885 41.6991C65.9229 45.5614 69.0741 48.6931 72.9445 48.6931C76.8148 48.6931 79.966 45.5612 80.0004 41.6991C80.0005 41.6936 80.0005 41.6883 80.0007 41.683ZM77.1568 40.4636H68.732L72.9445 28.8814L77.1568 40.4636ZM64.8385 24.1853H53.2688C53.821 21.4975 56.2049 19.4698 59.0537 19.4698C61.9024 19.4698 64.2862 21.4975 64.8385 24.1853ZM7.13977 73.4711C6.93148 73.4711 6.76195 73.3014 6.76195 73.0928V25.1598C6.76195 23.6447 4.4182 23.6447 4.4182 25.1598V69.0534H2.72336C2.51508 69.0534 2.3457 68.8838 2.3457 68.6752V2.72203C2.3457 2.51344 2.51508 2.34375 2.72336 2.34375H48.6085C48.8168 2.34375 48.9862 2.51344 48.9862 2.72203V4.41781H7.13977C5.63914 4.41781 4.4182 5.63891 4.4182 7.13984V19.3009C4.4182 20.8161 6.76195 20.8161 6.76195 19.3009V7.13969C6.76195 6.93109 6.93133 6.76141 7.13977 6.76141H53.0248C53.233 6.76141 53.4024 6.93109 53.4024 7.13969V8.60266H11.5515C10.0509 8.60266 8.83008 9.82375 8.83008 11.3247V73.4659L7.13977 73.4711ZM49.3296 75.9898V69.5005C49.3296 69.2919 49.499 69.1222 49.7074 69.1222H56.1662L49.3296 75.9898ZM57.9896 52.308V26.5652H60.1176V52.308H57.9896ZM55.6459 52.3195H51.781C48.2445 52.3195 45.3671 55.1969 45.3671 58.7336C45.3671 59.3809 45.8918 59.9055 46.539 59.9055H57.8145V66.7784H49.7074C48.2068 66.7784 46.9859 67.9995 46.9859 69.5005V77.6562H11.5515C11.3432 77.6562 11.1738 77.4866 11.1738 77.278V11.3248C11.1738 11.1162 11.3432 10.9466 11.5515 10.9466H57.4366C57.6449 10.9466 57.8145 11.1162 57.8145 11.3248V17.2195C54.2396 17.7603 51.411 20.6039 50.891 24.1855H45.2321C44.6491 24.2786 44.2588 24.5675 44.0613 25.0523L38.1757 41.235C38.1226 41.3816 38.0982 41.5431 38.1068 41.6989C38.1412 45.5612 41.2924 48.693 45.1627 48.693C49.033 48.693 52.1843 45.5611 52.2187 41.6989C52.2271 41.5433 52.2029 41.3816 52.1498 41.235L46.8013 26.5292L55.646 26.5477V52.3195H55.6459ZM40.9502 40.4636L45.1627 28.8814L49.3752 40.4636H40.9502ZM49.7291 42.8073C49.2068 44.8416 47.3576 46.3492 45.1627 46.3492C42.9679 46.3492 41.1187 44.8416 40.5963 42.8073H49.7291ZM72.9445 46.3492C70.7496 46.3492 68.9004 44.8416 68.378 42.8073H77.5107C76.9885 44.8414 75.1393 46.3492 72.9445 46.3492Z" fill="white"/>
</g>
<defs>
<clipPath id="clip0_1216_903">
<rect width="80" height="80" fill="white"/>
</clipPath>
</defs>
</svg>
