<svg width="90" height="90" viewBox="0 0 90 90" fill="none" xmlns="http://www.w3.org/2000/svg">
<path d="M3.74987 0H71.2499C73.3209 0 75 1.67889 75 3.74994V29.9999C75 32.0709 73.3211 33.7498 71.2501 33.7498C69.179 33.7498 67.5001 32.0709 67.5001 29.9999V7.49988H7.50016V82.4999H67.4999V59.9999C67.4999 57.9289 69.1788 56.25 71.2499 56.25C73.3209 56.25 74.9998 57.9289 74.9998 59.9999V86.2499C74.9998 88.3209 73.3209 89.9998 71.2499 89.9998H3.74987C1.67881 89.9998 -7.62939e-05 88.3209 -7.62939e-05 86.2499V3.74994C-7.62939e-05 1.67889 1.67881 0 3.74987 0Z" fill="white" fill-opacity="0.1"/>
<path d="M55.1517 57.3488C56.6162 58.8132 56.6162 61.1877 55.1517 62.6521C53.6873 64.1165 51.3128 64.1165 49.8484 62.6521L34.8485 47.6522C34.8478 47.6515 34.8474 47.6507 34.8467 47.6502C34.76 47.5634 34.6779 47.4723 34.6001 47.3774C34.5644 47.334 34.5335 47.2883 34.5001 47.2436C34.4602 47.1904 34.4188 47.1382 34.3818 47.0826C34.3461 47.0292 34.3151 46.9738 34.2824 46.919C34.2524 46.8687 34.2209 46.8197 34.1931 46.768C34.1633 46.7121 34.1379 46.6548 34.1111 46.5976C34.0856 46.5437 34.0587 46.4906 34.0356 46.4354C34.0128 46.38 33.9942 46.3234 33.9741 46.2672C33.9529 46.2079 33.9302 46.1496 33.9119 46.0891C33.8948 46.0329 33.8824 45.9755 33.8681 45.9188C33.8525 45.8571 33.8353 45.7961 33.8228 45.7333C33.8098 45.6674 33.8019 45.601 33.7924 45.5347C33.7846 45.48 33.7741 45.4262 33.7686 45.3707C33.7444 45.1246 33.7444 44.8766 33.7686 44.6305C33.7741 44.5751 33.7845 44.5213 33.7924 44.4665C33.8019 44.4002 33.8096 44.3336 33.8228 44.2678C33.8353 44.2049 33.8525 44.1441 33.8681 44.0824C33.8824 44.0254 33.8948 43.9683 33.9119 43.9121C33.9302 43.8516 33.9529 43.793 33.9741 43.734C33.9943 43.6777 34.0128 43.6211 34.0356 43.5658C34.0585 43.5104 34.0856 43.4575 34.1111 43.4035C34.1379 43.3466 34.1633 43.2891 34.1931 43.2332C34.2209 43.1815 34.2524 43.1325 34.2824 43.0822C34.3151 43.0273 34.3461 42.972 34.3818 42.9185C34.4188 42.863 34.4602 42.811 34.5001 42.7575C34.5335 42.7129 34.5644 42.6672 34.6001 42.6238C34.6779 42.5288 34.76 42.4376 34.8467 42.3509C34.8474 42.3502 34.8478 42.3495 34.8485 42.349L49.8484 27.3491C51.3128 25.8846 53.6873 25.8846 55.1517 27.3491C56.6162 28.8135 56.6162 31.1879 55.1517 32.6524L46.5534 41.2507H86.2501C88.3211 41.2504 90 42.9293 90 45.0003C90 47.0714 88.3211 48.7503 86.2501 48.7503H46.5534L55.1517 57.3488Z" fill="white" fill-opacity="0.1"/>
</svg>
