<svg width="103" height="90" viewBox="0 0 103 90" fill="none" xmlns="http://www.w3.org/2000/svg">
<path d="M3.74987 0H71.2499C73.3209 0 75 1.67889 75 3.74994V29.9999C75 32.0709 73.3211 33.7498 71.2501 33.7498C69.179 33.7498 67.5001 32.0709 67.5001 29.9999V7.49988H7.50016V82.4999H67.4999V59.9999C67.4999 57.9289 69.1788 56.25 71.2499 56.25C73.3209 56.25 74.9998 57.9289 74.9998 59.9999V86.2499C74.9998 88.3209 73.3209 89.9998 71.2499 89.9998H3.74987C1.67881 89.9998 -7.62939e-05 88.3209 -7.62939e-05 86.2499V3.74994C-7.62939e-05 1.67889 1.67881 0 3.74987 0Z" fill="white" fill-opacity="0.1"/>
<path d="M81.5973 57.3488C80.1329 58.8132 80.1329 61.1877 81.5973 62.6521C83.0617 64.1165 85.4362 64.1165 86.9006 62.6521L101.901 47.6522L101.902 47.6502C101.989 47.5634 102.071 47.4723 102.149 47.3774C102.185 47.334 102.216 47.2883 102.249 47.2436C102.289 47.1904 102.33 47.1382 102.367 47.0826C102.403 47.0292 102.434 46.9738 102.467 46.919C102.497 46.8687 102.528 46.8197 102.556 46.768C102.586 46.7121 102.611 46.6548 102.638 46.5976C102.663 46.5437 102.69 46.4906 102.713 46.4354C102.736 46.38 102.755 46.3234 102.775 46.2672C102.796 46.2079 102.819 46.1496 102.837 46.0891C102.854 46.0329 102.867 45.9755 102.881 45.9188C102.897 45.8571 102.914 45.7961 102.926 45.7333C102.939 45.6674 102.947 45.601 102.957 45.5347C102.964 45.48 102.975 45.4262 102.98 45.3707C103.005 45.1246 103.005 44.8766 102.98 44.6305C102.975 44.5751 102.965 44.5213 102.957 44.4665C102.947 44.4002 102.939 44.3336 102.926 44.2678C102.914 44.2049 102.897 44.1441 102.881 44.0824C102.867 44.0254 102.854 43.9683 102.837 43.9121C102.819 43.8516 102.796 43.7931 102.775 43.734C102.755 43.6777 102.736 43.6211 102.713 43.5658C102.691 43.5104 102.663 43.4575 102.638 43.4035C102.611 43.3466 102.586 43.2891 102.556 43.2332C102.528 43.1815 102.497 43.1325 102.467 43.0822C102.434 43.0273 102.403 42.972 102.367 42.9185C102.33 42.863 102.289 42.811 102.249 42.7575C102.216 42.7129 102.185 42.6672 102.149 42.6238C102.071 42.5288 101.989 42.4376 101.902 42.3509L101.901 42.349L86.9006 27.3491C85.4362 25.8846 83.0617 25.8846 81.5973 27.3491C80.1329 28.8135 80.1329 31.1879 81.5973 32.6524L90.1956 41.2507H40.499C38.4279 41.2504 36.749 42.9293 36.749 45.0003C36.749 47.0714 38.4279 48.7503 40.499 48.7503H90.1956L81.5973 57.3488Z" fill="white" fill-opacity="0.1"/>
</svg>
